<?xml version="1.0" encoding="UTF-8" standalone="no"?>
<svg
   xmlns:dc="http://purl.org/dc/elements/1.1/"
   xmlns:cc="http://creativecommons.org/ns#"
   xmlns:rdf="http://www.w3.org/1999/02/22-rdf-syntax-ns#"
   xmlns:svg="http://www.w3.org/2000/svg"
   xmlns="http://www.w3.org/2000/svg"
   xmlns:sodipodi="http://sodipodi.sourceforge.net/DTD/sodipodi-0.dtd"
   xmlns:inkscape="http://www.inkscape.org/namespaces/inkscape"
   width="82.990982mm"
   height="82.990952mm"
   viewBox="0 0 82.990982 82.990952"
   version="1.1"
   id="svg8"
   inkscape:version="1.0.2 (e86c870, 2021-01-15)"
   sodipodi:docname="order-marker-assault.svg">
  <defs
     id="defs2" />
  <sodipodi:namedview
     id="base"
     pagecolor="#ffffff"
     bordercolor="#666666"
     borderopacity="1.0"
     inkscape:pageopacity="0.0"
     inkscape:pageshadow="2"
     inkscape:zoom="0.35"
     inkscape:cx="311.11906"
     inkscape:cy="-160.30956"
     inkscape:document-units="mm"
     inkscape:current-layer="layer1"
     inkscape:document-rotation="0"
     showgrid="false"
     inkscape:window-width="1431"
     inkscape:window-height="1208"
     inkscape:window-x="320"
     inkscape:window-y="125"
     inkscape:window-maximized="0" />
  <metadata
     id="metadata5">
    <rdf:RDF>
      <cc:Work
         rdf:about="">
        <dc:format>image/svg+xml</dc:format>
        <dc:type
           rdf:resource="http://purl.org/dc/dcmitype/StillImage" />
        <dc:title></dc:title>
      </cc:Work>
    </rdf:RDF>
  </metadata>
  <g
     inkscape:label="Layer 1"
     inkscape:groupmode="layer"
     id="layer1"
     transform="translate(-23.516415,-190.5819)">
    <path
       d="m 29.69003,231.81278 9.733227,-6.85641 -5.000889,-10.80452 11.857302,-1.0713 1.071298,-11.85741 10.804524,5.001 6.856413,-9.73321 6.856412,9.73321 10.804525,-5.001 1.071298,11.85741 11.857566,1.0713 -5.001154,10.80452 9.733228,6.85641 -9.733228,6.85642 5.001154,10.80452 -11.857566,1.0713 -1.071298,11.85756 -10.804525,-5.00115 -6.856412,9.73323 -6.856413,-9.73323 -10.804524,5.00115 -1.071298,-11.85756 -11.857302,-1.0713 5.000889,-10.80452 z"
       stroke="#000000"
       stroke-width="2.82223"
       stroke-miterlimit="8"
       fill="none"
       fill-rule="evenodd"
       id="path10" />
    <rect
       x="30.351488"
       y="242.92528"
       width="69.585419"
       height="28.574999"
       fill="#ffffff"
       id="rect12"
       style="stroke-width:0.264583" />
    <path
       d="m 84.723363,253.57899 h -9.921875 v 11.70358 h -19.84375 v -11.70358 h -9.921875 l 19.84375,-28.77767 z"
       stroke="#000000"
       stroke-width="2.82223"
       stroke-miterlimit="8"
       fill-rule="evenodd"
       id="path14" />
    <path
       d="m 38.289253,272.16174 c -7.379494,0 -13.361723,-5.98223 -13.361723,-13.36172 v -53.44531 c 0,-7.37946 5.982229,-13.36169 13.361723,-13.36169 m 53.445304,0 c 7.379493,0 13.361723,5.98223 13.361723,13.36169 v 53.44531 c 0,7.37949 -5.98223,13.36172 -13.361723,13.36172"
       stroke="#70ad47"
       stroke-width="2.82223"
       stroke-miterlimit="8"
       fill="none"
       fill-rule="evenodd"
       id="path16" />
  </g>
</svg>
