<?xml version="1.0" encoding="UTF-8" standalone="no"?>
<svg
   xmlns:dc="http://purl.org/dc/elements/1.1/"
   xmlns:cc="http://creativecommons.org/ns#"
   xmlns:rdf="http://www.w3.org/1999/02/22-rdf-syntax-ns#"
   xmlns:svg="http://www.w3.org/2000/svg"
   xmlns="http://www.w3.org/2000/svg"
   xmlns:sodipodi="http://sodipodi.sourceforge.net/DTD/sodipodi-0.dtd"
   xmlns:inkscape="http://www.inkscape.org/namespaces/inkscape"
   width="82.990982mm"
   height="82.990982mm"
   viewBox="0 0 82.990982 82.990982"
   version="1.1"
   id="svg188"
   inkscape:version="1.0.2 (e86c870, 2021-01-15)"
   sodipodi:docname="order-marker-overwatch.svg">
  <defs
     id="defs182" />
  <sodipodi:namedview
     id="base"
     pagecolor="#ffffff"
     bordercolor="#666666"
     borderopacity="1.0"
     inkscape:pageopacity="0.0"
     inkscape:pageshadow="2"
     inkscape:zoom="0.35"
     inkscape:cx="-137.45236"
     inkscape:cy="279.69049"
     inkscape:document-units="mm"
     inkscape:current-layer="layer1"
     inkscape:document-rotation="0"
     showgrid="false"
     inkscape:window-width="1431"
     inkscape:window-height="1208"
     inkscape:window-x="256"
     inkscape:window-y="125"
     inkscape:window-maximized="0" />
  <metadata
     id="metadata185">
    <rdf:RDF>
      <cc:Work
         rdf:about="">
        <dc:format>image/svg+xml</dc:format>
        <dc:type
           rdf:resource="http://purl.org/dc/dcmitype/StillImage" />
        <dc:title></dc:title>
      </cc:Work>
    </rdf:RDF>
  </metadata>
  <g
     inkscape:label="Layer 1"
     inkscape:groupmode="layer"
     id="layer1"
     transform="translate(-414.34379,-255.59379)">
    <g
       id="g198"
       transform="matrix(0.26458333,0,0,0.26458333,286.50595,152.62679)">
      <g
         id="g196">
        <g
           id="g194">
          <path
             d="m 640,569.5 c -13.531,0 -24.5,-10.969 -24.5,-24.5 0,-13.531 10.969,-24.5 24.5,-24.5 13.531,0 24.5,10.969 24.5,24.5 0,13.531 -10.969,24.5 -24.5,24.5 z m 0,-36.75 c -6.765,0 -12.25,5.485 -12.25,12.25 0,6.765 5.485,12.25 12.25,12.25 6.765,0 12.25,-5.485 12.25,-12.25 0,-6.765 -5.485,-12.25 -12.25,-12.25 z"
             id="path190" />
          <path
             d="m 747.188,538.875 c -3.212,-54.43 -46.633,-97.851 -101.063,-101.063 v -18.374 h -12.25 v 18.374 c -54.43,3.212 -97.851,46.633 -101.063,101.063 h -18.374 v 12.25 h 18.374 c 3.212,54.43 46.633,97.851 101.063,101.063 v 18.374 h 12.25 v -18.374 c 54.43,-3.212 97.851,-46.633 101.063,-101.063 h 18.374 v -12.25 z m -45.448,12.25 c -2.943,29.41 -26.205,52.672 -55.615,55.615 v -24.99 h -12.25 v 24.99 c -29.41,-2.943 -52.672,-26.205 -55.615,-55.615 h 24.99 v -12.25 h -24.99 c 2.943,-29.41 26.205,-52.672 55.615,-55.615 v 24.99 h 12.25 v -24.99 c 29.41,2.943 52.672,26.205 55.615,55.615 h -24.99 v 12.25 z m -67.865,-94.937 v 14.791 c -36.17,3.038 -64.872,31.727 -67.926,67.896 h -14.761 c 3.149,-44.297 38.39,-79.538 82.687,-82.687 z m -82.687,94.937 h 14.791 c 3.038,36.17 31.727,64.872 67.896,67.926 v 14.761 c -44.297,-3.149 -79.538,-38.39 -82.687,-82.687 z m 94.937,82.687 v -14.761 c 36.181,-3.04 64.886,-31.745 67.926,-67.926 h 14.761 c -3.149,44.297 -38.39,79.538 -82.687,82.687 z m 67.926,-94.937 c -3.04,-36.181 -31.745,-64.886 -67.926,-67.926 v -14.761 c 44.297,3.149 79.538,38.39 82.687,82.687 z"
             id="path192" />
        </g>
      </g>
    </g>
    <path
       d="m 429.11663,337.17366 c -7.37949,0 -13.36172,-5.98223 -13.36172,-13.36172 v -53.4453 c 0,-7.3795 5.98223,-13.36173 13.36172,-13.36173 m 53.4453,0 c 7.3795,0 13.36173,5.98223 13.36173,13.36173 v 53.4453 c 0,7.37949 -5.98223,13.36172 -13.36173,13.36172"
       stroke="#70ad47"
       stroke-width="2.82223"
       stroke-miterlimit="8"
       fill="none"
       fill-rule="evenodd"
       id="path200" />
  </g>
</svg>
