<?xml version="1.0" encoding="UTF-8" standalone="no"?>
<svg
   xmlns:dc="http://purl.org/dc/elements/1.1/"
   xmlns:cc="http://creativecommons.org/ns#"
   xmlns:rdf="http://www.w3.org/1999/02/22-rdf-syntax-ns#"
   xmlns:svg="http://www.w3.org/2000/svg"
   xmlns="http://www.w3.org/2000/svg"
   xmlns:sodipodi="http://sodipodi.sourceforge.net/DTD/sodipodi-0.dtd"
   xmlns:inkscape="http://www.inkscape.org/namespaces/inkscape"
   width="82.990982mm"
   height="82.990959mm"
   viewBox="0 0 82.990982 82.990959"
   version="1.1"
   id="svg309"
   inkscape:version="1.0.2 (e86c870, 2021-01-15)"
   sodipodi:docname="order-marker-immobilised.svg">
  <defs
     id="defs303" />
  <sodipodi:namedview
     id="base"
     pagecolor="#ffffff"
     bordercolor="#666666"
     borderopacity="1.0"
     inkscape:pageopacity="0.0"
     inkscape:pageshadow="2"
     inkscape:zoom="0.35"
     inkscape:cx="156.83335"
     inkscape:cy="156.83332"
     inkscape:document-units="mm"
     inkscape:current-layer="layer1"
     inkscape:document-rotation="0"
     showgrid="false"
     inkscape:window-width="1431"
     inkscape:window-height="1208"
     inkscape:window-x="128"
     inkscape:window-y="125"
     inkscape:window-maximized="0" />
  <metadata
     id="metadata306">
    <rdf:RDF>
      <cc:Work
         rdf:about="">
        <dc:format>image/svg+xml</dc:format>
        <dc:type
           rdf:resource="http://purl.org/dc/dcmitype/StillImage" />
        <dc:title></dc:title>
      </cc:Work>
    </rdf:RDF>
  </metadata>
  <g
     inkscape:label="Layer 1"
     inkscape:groupmode="layer"
     id="layer1"
     transform="translate(-64.337844,-106.67118)">
    <g
       id="g317"
       transform="matrix(0.26458333,0,0,0.26458333,-163.77708,92.868737)">
      <g
         id="g315">
        <g
           id="g313">
          <path
             d="m 1017,247.5 c -21.175,0 -38.5,-17.325 -38.5,-38.5 0,-21.175 17.325,-38.5 38.5,-38.5 21.18,0 38.5,17.325 38.5,38.5 0,21.175 -17.32,38.5 -38.5,38.5 z m 86.62,-62.562 c -1.92,-7.059 -4.81,-13.796 -8.34,-19.892 l 8.02,-24.063 -18.28,-18.287 -24.07,8.021 c -6.41,-3.529 -13.15,-6.417 -20.21,-8.342 l -10.91,-22.4583 h -25.66 l -11.232,22.4583 c -7.059,1.925 -13.796,4.813 -19.892,8.342 l -24.063,-8.021 -18.287,18.287 8.021,24.063 c -3.529,6.416 -6.417,13.154 -8.342,20.212 l -22.458,10.909 v 25.666 l 22.458,11.229 c 1.925,7.059 4.813,13.796 8.342,19.892 l -8.021,24.063 18.287,18.287 24.063,-8.021 c 6.417,3.529 13.154,6.417 20.212,8.342 l 11.232,22.458 h 25.66 l 11.23,-22.458 c 7.06,-1.925 13.8,-4.813 19.9,-8.342 l 24.06,8.021 18.28,-18.287 -8.02,-24.063 c 3.53,-6.417 6.42,-13.154 8.35,-20.212 l 22.45,-11.23 v -25.666 z"
             id="path311" />
        </g>
      </g>
    </g>
    <path
       d="m 88.503125,148.29894 c 0,-9.93642 7.522104,-17.99166 16.801045,-17.99166 9.27893,0 16.80104,8.05524 16.80104,17.99166 0,9.93643 -7.52211,17.99167 -16.80104,17.99167 -9.278941,0 -16.801045,-8.05524 -16.801045,-17.99167 z"
       stroke="#000000"
       stroke-width="0"
       stroke-miterlimit="8"
       fill-rule="evenodd"
       id="path319" />
    <g
       id="g327"
       transform="matrix(0.26458333,0,0,0.26458333,-163.77708,92.868737)">
      <g
         id="g325">
        <g
           id="g323">
          <path
             d="M 977.667,338.833 1012.5,221.667 H 958.667 L 985.33,79.9267 H 1065 l -33.5,103.7403 h 53.83 z"
             stroke="#000000"
             stroke-width="10.7019"
             fill="#ffffff"
             id="path321" />
        </g>
      </g>
    </g>
    <path
       d="m 79.110682,188.25103 c -7.379494,0 -13.361723,-5.98223 -13.361723,-13.36173 V 121.444 c 0,-7.37947 5.982229,-13.3617 13.361723,-13.3617 m 53.445568,0 c 7.37923,0 13.36146,5.98223 13.36146,13.3617 v 53.4453 c 0,7.3795 -5.98223,13.36173 -13.36146,13.36173"
       stroke="#ed7d31"
       stroke-width="2.82223"
       stroke-miterlimit="8"
       fill="none"
       fill-rule="evenodd"
       id="path329" />
  </g>
</svg>
