<?xml version="1.0" encoding="UTF-8" standalone="no"?>
<svg
   xmlns:dc="http://purl.org/dc/elements/1.1/"
   xmlns:cc="http://creativecommons.org/ns#"
   xmlns:rdf="http://www.w3.org/1999/02/22-rdf-syntax-ns#"
   xmlns:svg="http://www.w3.org/2000/svg"
   xmlns="http://www.w3.org/2000/svg"
   xmlns:sodipodi="http://sodipodi.sourceforge.net/DTD/sodipodi-0.dtd"
   xmlns:inkscape="http://www.inkscape.org/namespaces/inkscape"
   width="82.726402mm"
   height="82.990952mm"
   viewBox="0 0 82.726402 82.990952"
   version="1.1"
   id="svg270"
   inkscape:version="1.0.2 (e86c870, 2021-01-15)"
   sodipodi:docname="order-marker-broken.svg">
  <defs
     id="defs264" />
  <sodipodi:namedview
     id="base"
     pagecolor="#ffffff"
     bordercolor="#666666"
     borderopacity="1.0"
     inkscape:pageopacity="0.0"
     inkscape:pageshadow="2"
     inkscape:zoom="0.35"
     inkscape:cx="-192.23808"
     inkscape:cy="696.8333"
     inkscape:document-units="mm"
     inkscape:current-layer="layer1"
     inkscape:document-rotation="0"
     showgrid="false"
     inkscape:window-width="1431"
     inkscape:window-height="1208"
     inkscape:window-x="64"
     inkscape:window-y="64"
     inkscape:window-maximized="0" />
  <metadata
     id="metadata267">
    <rdf:RDF>
      <cc:Work
         rdf:about="">
        <dc:format>image/svg+xml</dc:format>
        <dc:type
           rdf:resource="http://purl.org/dc/dcmitype/StillImage" />
        <dc:title></dc:title>
      </cc:Work>
    </rdf:RDF>
  </metadata>
  <g
     inkscape:label="Layer 1"
     inkscape:groupmode="layer"
     id="layer1"
     transform="translate(-156.69632,36.20381)">
    <path
       d="m 200.64334,-25.149448 -25.02033,15.2624311 1.46971,2.4093487 25.02032,-15.2624418 z m -26.75509,9.708906 -8.37248,13.3718567 15.72101,-1.3251656 z"
       id="path272"
       style="stroke-width:0.264583" />
    <path
       d="m 201.39036,-25.178557 18.99762,10.545498 -1.36975,2.467504 -18.99761,-10.545498 z m 20.50336,4.925483 8.91355,13.0175 -15.76203,-0.6797145 z"
       id="path274"
       style="stroke-width:0.264583" />
    <path
       d="m 202.02404,-24.447275 17.65538,46.331478 -2.63737,1.005152 -17.65538,-46.331716 z M 224.45118,18.555744 222.883,34.254267 211.26514,23.580446 Z"
       id="path276"
       style="stroke-width:0.264583" />
    <path
       d="m 199.35716,-24.293873 -7.98961,31.2918499 2.7345,0.6982354 7.98961,-31.2918973 z m -13.10951,28.528277 3.34532,15.4178 10.32718,-11.9268876 z"
       id="path278"
       style="stroke-width:0.264583" />
    <path
       d="m 171.42498,45.376027 c -7.35489,0 -13.31754,-5.962385 -13.31754,-13.317537 v -53.533674 c 0,-7.35502 5.96265,-13.317511 13.31754,-13.317511 m 53.26909,0 c 7.35515,0 13.31754,5.962491 13.31754,13.317511 V 32.05849 c 0,7.355152 -5.96239,13.317537 -13.31754,13.317537"
       stroke="#ed7d31"
       stroke-width="2.82223"
       stroke-miterlimit="8"
       fill="none"
       fill-rule="evenodd"
       id="path280" />
  </g>
</svg>
