<svg xmlns="http://www.w3.org/2000/svg" width="832" height="605" stroke="#000" stroke-linecap="round" stroke-linejoin="round" fill="#fff" fill-rule="evenodd"><g stroke="none"><path fill="#e0e0e0" d="M75.0906 75.0906h680.315v453.5433H75.0906z"/><path fill="#007fff" d="M56.193 528.6339V75.0906h11.3386v453.5433z"/><path fill="#ff8200" d="M762.9646 528.6339V75.0906h11.3386v453.5433z"/></g><path d="M75.0906 434.1458c47.2441 0 56.6929-22.6772 105.8268-49.1339 86.9291-18.8976 54.8031-56.6929 120.9449-56.6929 86.9291 0 86.9291-68.0315 173.8582-68.0315 26.4567-3.7795 26.4567-18.8976 52.9134-18.8976 62.3622 0 62.3622-71.811 124.7244-71.811 51.0237 0 51.0237-37.7953 102.0473-37.7953M75.0906 471.9411c56.6929-7.5591 56.6929-22.6772 105.8268-49.1339 79.3701-18.8976 71.811-52.9134 120.9449-56.6929 83.1496-11.3386 86.9291-56.6929 173.8582-68.0315 26.4567-3.7795 41.5748-22.6772 68.0315-22.6772 62.3622 0 47.2441-68.0314 109.6063-68.0314 51.0237 0 51.0237-37.7953 102.0473-37.7953" fill="none" stroke-width="4" stroke-linecap="butt" stroke="#a2a2a2"/><path stroke-width="4" d="M192.2559 331.1998l39.0675-14.2194 38.7802 106.5478-39.0675 14.2194zM564.44 182.8072l36.0048-20.7874 56.6929 98.195-36.0048 20.7874z" stroke="#838383" fill="#838383"/></svg>