<svg xmlns="http://www.w3.org/2000/svg" xmlns:xlink="http://www.w3.org/1999/xlink" width="832" height="605" viewBox="0 0 1663 1210" stroke="#000" stroke-linecap="round" stroke-linejoin="round" fill="#fff" fill-rule="evenodd"><style><![CDATA[.B{stroke-linecap:square}.C{fill:none}.D{stroke-dasharray:3.7796 7.5592}.E{stroke-width:3.7796}.F{fill:#000}.G{fill:#ff8200}.H{stroke:none}.I{fill:#e0e0e0}.J{fill:#ffb466}.K{fill:#007fff}.L{fill:#66b2ff}]]></style><defs><path d="M0 0l3 10h-6z" id="A" class="H"/><path id="B" d="M762.9646 75.0906h11.3386v472.441h-11.3386z"/></defs><g class="H"><path d="M75.0906 75.0906h680.315v453.5433H75.0906z" class="I"/><path d="M75.0906 75.0906h510.2362v283.4646H75.0906z" class="J"/><path d="M56.1929 56.1929h699.2126v11.3386H56.1929z" class="G"/><g class="K"><path d="M75.0906 536.1929h699.2126v11.3386H75.0906z"/><use xlink:href="#B"/></g><path d="M56.1929 56.1929h11.3386v472.441H56.1929z" class="G"/><g class="L"><path d="M75.0906 415.248h680.315v113.3858H75.0906z"/><path d="M642.0197 75.0906h113.3858v453.5433H642.0197z"/></g></g><g transform="translate(698.7128 267.8465)" class="B"><path d="M0 0v180.868" class="C D E"/><use transform="matrix(-2.44490004 0 0 -2.44490004 0 408.18877447)" xlink:href="#A" y="83.4776" class="F"/></g><g transform="matrix(0 1 -1 0 696.8229 471.941)" class="B"><path d="M0 0v139.2932" class="C D E"/><use transform="matrix(-2.44490004 0 0 -2.44490004 0 325.03919119)" xlink:href="#A" y="66.4729" class="F"/></g><g transform="translate(698.7128 78.8701)" class="B"><path d="M0 0v165.7514" class="C D E"/><use transform="matrix(-2.44490004 0 0 -2.44490004 0 377.95611858)" xlink:href="#A" y="77.2948" class="F"/></g><g transform="matrix(0 1 -1 0 532.4144 471.9407)" class="B"><path d="M0 0v434.0974" class="C D E"/><use transform="matrix(-2.44490004 0 0 -2.44490004 0 914.64786097)" xlink:href="#A" y="187.0522" class="F"/></g><g class="H"><path d="M906.5866 75.0906h680.315v453.5433h-680.315z" class="I"/><path d="M1076.6654 75.0906h510.2362v283.4646h-510.2362z" class="J"/><path d="M906.5866 56.1929h699.2126v11.3386H906.5866z" class="G"/><g class="K"><path d="M887.689 536.1929h699.2126v11.3386H887.689z"/><path d="M887.689 75.0906h11.3386v472.441H887.689z"/></g><use xlink:href="#B" x="831.496" y="-18.8977" class="G"/><g class="L"><path d="M906.5866 415.2481h680.315v113.3858h-680.315z"/><path d="M906.5866 75.0906h113.3858v453.5433H906.5866z"/></g></g><g transform="translate(963.2793 267.8465)" class="B"><path d="M0 0v180.868" class="C D E"/><use transform="matrix(-2.44490004 0 0 -2.44490004 0 408.18877447)" xlink:href="#A" y="83.4776" class="F"/></g><g transform="matrix(0 -1 1 0 965.1692 471.941)" class="B"><path d="M0 0v139.2932" class="C D E"/><use transform="matrix(-2.44490004 0 0 -2.44490004 0 325.03919119)" xlink:href="#A" y="66.4729" class="F"/></g><g transform="translate(963.2793 78.8701)" class="B"><path d="M0 0v165.7514" class="C D E"/><use transform="matrix(-2.44490004 0 0 -2.44490004 0 377.95611858)" xlink:href="#A" y="77.2948" class="F"/></g><g transform="matrix(0 -1 1 0 1129.5777 471.9407)" class="B"><path d="M0 0v434.0974" class="C D E"/><use transform="matrix(-2.44490004 0 0 -2.44490004 0 914.64786097)" xlink:href="#A" y="187.0522" class="F"/></g><g class="H"><path d="M75.0906 679.8185h680.315v453.5433H75.0906z" class="I"/><path d="M75.0906 679.8185h510.2362v283.4646H75.0906z" class="J"/><path d="M56.1929 660.9209h699.2126v11.3386H56.1929z" class="G"/><g class="K"><path d="M75.0906 1140.9209h699.2126v11.3386H75.0906z"/><use xlink:href="#B" y="604.7279"/></g><path d="M56.1929 660.9209h11.3386v472.441H56.1929z" class="G"/><g class="L"><path d="M75.0906 1019.976h680.315v113.3858H75.0906z"/><path d="M642.0197 679.8185h113.3858v453.5433H642.0197z"/></g></g><g transform="translate(698.7128 872.5744)" class="B"><path d="M0 23.2265v180.868" class="C D E"/><use transform="matrix(2.44490004 0 0 2.44490004 0 0)" xlink:href="#A" class="F"/></g><g transform="matrix(0 1 -1 0 700.6024 1076.669)" class="B"><path d="M0 23.2265v139.2932" class="C D E"/><use transform="matrix(2.44490004 0 0 2.44490004 0 0)" xlink:href="#A" class="F"/></g><g transform="translate(698.7128 679.8185)" class="B"><path d="M0 23.2265V188.978" class="C D E"/><use transform="matrix(2.44490004 0 0 2.44490004 0 0)" xlink:href="#A" class="F"/></g><g transform="matrix(0 1 -1 0 536.1939 1076.6687)" class="B"><path d="M0 23.2266v434.0973" class="C D E"/><use transform="matrix(2.44490004 0 0 2.44490004 0 0)" xlink:href="#A" class="F"/></g><g class="H"><path d="M906.5866 679.8186h680.315v453.5433h-680.315z" class="I"/><path d="M1076.6654 679.8186h510.2362v283.4646h-510.2362z" class="J"/><path d="M906.5866 660.9209h699.2126v11.3386H906.5866z" class="G"/><g class="K"><path d="M887.689 1140.9209h699.2126v11.3386H887.689z"/><path d="M887.689 679.8186h11.3386v472.441H887.689z"/></g><use xlink:href="#B" x="831.496" y="585.8303" class="G"/><g class="L"><path d="M906.5866 1019.9761h680.315v113.3858h-680.315z"/><path d="M906.5866 679.8186h113.3858v453.5433H906.5866z"/></g></g><g transform="translate(963.2793 872.5745)" class="B"><path d="M0 23.2265v180.868" class="C D E"/><use transform="matrix(2.44490004 0 0 2.44490004 0 0)" xlink:href="#A" class="F"/></g><g transform="matrix(0 -1 1 0 963.2792 1076.669)" class="B"><path d="M0 23.2265v139.2932" class="C D E"/><use transform="matrix(2.44490004 0 0 2.44490004 0 0)" xlink:href="#A" class="F"/></g><g transform="translate(963.2793 679.8186)" class="B"><path d="M0 23.2265V188.978" class="C D E"/><use transform="matrix(2.44490004 0 0 2.44490004 0 0)" xlink:href="#A" class="F"/></g><g transform="matrix(0 -1 1 0 1127.6877 1076.6687)" class="B"><path d="M0 23.2266v434.0973" class="C D E"/><use transform="matrix(2.44490004 0 0 2.44490004 0 0)" xlink:href="#A" class="F"/></g></svg>